<svg width="51" height="51" viewBox="0 0 51 51" fill="none" xmlns="http://www.w3.org/2000/svg">
<g clip-path="url(#clip0_1422_18835)">
<path d="M43.1247 29.758V14.8665C43.1247 14.245 42.619 13.7393 41.9975 13.7393H40.0097C39.3882 13.7393 38.8824 14.2449 38.8824 14.8665V29.7574H37.6308V19.0984C37.6308 18.477 37.1251 17.9712 36.5035 17.9712H34.5157C33.8942 17.9712 33.3885 18.4769 33.3885 19.0984V29.7574H32.137V26.8126C32.137 26.1911 31.6313 25.6854 31.0098 25.6854H29.0218C28.4003 25.6854 27.8945 26.191 27.8945 26.8126V29.7574H26.6433V22.7405C26.6433 22.119 26.1376 21.6134 25.516 21.6134H23.5281C22.9067 21.6134 22.401 22.119 22.401 22.7406V29.7575H22.3379C21.9333 29.7575 21.6055 30.0854 21.6055 30.4899C21.6055 30.8944 21.9333 31.2224 22.3379 31.2224H43.1123C43.5169 31.2224 43.8447 30.8944 43.8447 30.4899C43.8448 30.0896 43.5235 29.7647 43.1247 29.758ZM25.1783 29.7573H23.8659V23.0782H25.1783V29.7573ZM30.6721 29.7573H29.3597V27.1502H30.6721V29.7573ZM36.1658 29.7573H34.8534V19.4361H36.1658V29.7573ZM41.6597 29.7573H40.3474V15.2042H41.6598V29.7573H41.6597Z" fill="white"/>
<path d="M48.7757 4.37988H33.112C32.7074 4.37988 32.3796 4.70781 32.3796 5.1123C32.3796 5.5168 32.7074 5.84473 33.112 5.84473H48.7758C48.9163 5.84473 49.0351 5.96348 49.0351 6.104V7.75029C49.0351 7.89082 48.9163 8.00957 48.7758 8.00957C48.2973 8.00957 13.9417 8.00957 13.4967 8.00957C13.3562 8.00957 13.2374 7.89082 13.2374 7.75029V6.1041C13.2374 5.96357 13.3562 5.84482 13.4967 5.84482H29.6939C30.0985 5.84482 30.4264 5.51689 30.4264 5.1124C30.4264 4.70791 30.0985 4.37998 29.6939 4.37998H13.4967C12.5459 4.37998 11.7725 5.15342 11.7725 6.1042V7.75049C11.7725 8.68428 12.5189 9.44512 13.4463 9.47217V11.992C9.64522 12.2956 6.64434 15.4837 6.64434 19.3617V21.5287C6.25303 21.9906 6.04131 22.5538 6.04131 23.1501C6.04131 24.476 7.02861 25.6186 8.41123 25.7731C8.63281 27.1648 9.38682 28.5018 10.5821 29.4046V30.7813L3.69209 33.4525C3.6875 33.4543 3.68291 33.4562 3.67832 33.458C3.54844 33.5113 0.5 34.8055 0.5 38.3609V45.2532C0.5 46.0065 1.11279 46.6194 1.86621 46.6194C2.89463 46.6194 25.2209 46.6194 26.3444 46.6194C27.0947 46.6194 27.7052 46.0091 27.7052 45.2587V39.2637H47.2673C48.1271 39.2637 48.8264 38.5644 48.8264 37.7047V24.1893C48.8264 23.7848 48.4985 23.4568 48.0939 23.4568C47.6894 23.4568 47.3615 23.7848 47.3615 24.1893V37.7048C47.3615 37.7566 47.3192 37.7988 47.2674 37.7988H27.6789C27.4871 35.7486 26.0391 34.0442 24.513 33.4524L17.6154 30.7812V29.3151C18.6746 28.4698 19.4503 27.2217 19.6729 25.7748C21.0222 25.6219 22.0386 24.5 22.0386 23.1501C22.0386 22.5521 21.8327 21.9533 21.4353 21.4733V19.3616C21.4353 15.5812 18.5891 12.448 14.911 12.0187V9.47471H47.3613V20.7711C47.3613 21.1756 47.6892 21.5035 48.0938 21.5035C48.4983 21.5035 48.8262 21.1756 48.8262 20.7711V9.47217C49.7536 9.44512 50.5 8.68418 50.5 7.75039V6.1041C50.5 5.15342 49.7266 4.37988 48.7757 4.37988ZM8.34141 24.2697C7.83652 24.1148 7.50596 23.6626 7.50596 23.1501C7.50596 22.6525 7.87783 22.2485 8.34141 22.0742V24.2697ZM11.0823 32.16L13.0396 34.5761C12.1948 35.1761 11.3343 35.7875 11.2433 35.8521L9.67334 32.7057L11.0823 32.16ZM14.1005 33.5538L12.0469 31.0187V30.1949C13.2873 30.6394 14.7951 30.6903 16.1505 30.1607V31.0235L14.1005 33.5538ZM15.0735 36.3103L14.7507 36.7963H13.4506L13.1276 36.3103L14.1006 35.6194L15.0735 36.3103ZM11.0244 45.1546H6.60156V39.4284C6.60156 39.0239 6.27373 38.696 5.86914 38.696C5.46455 38.696 5.13672 39.0239 5.13672 39.4284V45.1546H1.96494V38.361C1.96494 35.8337 4.09521 34.8733 4.23115 34.8146L8.30117 33.2368L10.0854 36.8127C10.4053 37.4534 11.2243 37.6624 11.8123 37.2447L11.9328 37.1592L12.2873 37.6928L11.0244 45.1546ZM12.5101 45.1546L13.6768 38.2613H14.5246L15.6913 45.1546H12.5101ZM23.9742 34.8147C24.6232 35.0952 25.4108 35.768 25.8378 36.6143C26.1765 37.285 26.2401 37.8597 26.2401 38.5312V45.1545H23.0688V39.4284C23.0688 39.0239 22.7409 38.696 22.3363 38.696C21.9317 38.696 21.6039 39.0239 21.6039 39.4284V45.1546H17.177L15.9141 37.6927L16.2686 37.1592L16.3892 37.2448C16.9756 37.6613 17.7951 37.4555 18.1159 36.8128L19.9001 33.2371L23.9742 34.8147ZM18.5279 32.7056L16.958 35.8519C16.958 35.8519 15.1622 34.5764 15.1592 34.5742L17.1161 32.1588L17.4301 32.2804L18.5279 32.7056ZM18.2733 24.9175C18.2668 27.1862 16.4319 29.0784 14.1043 29.0784C11.4476 29.0751 9.80625 26.9919 9.80625 24.916C9.80625 24.4607 9.80625 21.6765 9.80625 21.2307C12.2019 21.3358 14.7784 20.6505 16.9434 19.2941C17.6621 20.0652 18.1025 20.5258 18.2732 20.7249C18.2733 20.7511 18.2733 24.9175 18.2733 24.9175ZM19.7383 24.2677V22.0319C20.8496 22.3744 20.8505 23.9255 19.7383 24.2677ZM19.9703 19.3616V20.5762C19.8937 20.5589 19.8158 20.5454 19.7372 20.5347C19.7372 20.0508 19.5021 19.8937 17.8575 18.1262L17.8574 18.1261C17.463 17.7022 16.8247 17.6243 16.3402 17.9411C14.377 19.2237 11.9306 19.9188 9.61582 19.7524C9.08203 19.7124 8.58213 20.0409 8.40625 20.5494C8.30635 20.5646 8.20703 20.585 8.10898 20.6107V19.3618C8.10898 16.1278 10.7412 13.3784 14.1635 13.4345C17.3649 13.5001 19.9703 16.1587 19.9703 19.3616Z" fill="white"/>
</g>
<defs>
<clipPath id="clip0_1422_18835">
<rect width="50" height="50" fill="white" transform="translate(0.5 0.5)"/>
</clipPath>
</defs>
</svg>
