<svg width="71" height="82" viewBox="0 0 71 82" fill="none" xmlns="http://www.w3.org/2000/svg">
<path d="M7.96416 39.6821C7.33859 42.0497 7.02148 44.503 7.02148 46.974C7.02148 54.6939 10.1112 61.7046 15.1172 66.8385C15.1906 66.9409 15.2761 67.0283 15.3767 67.1039C20.4841 72.2079 27.5159 75.3851 35.2762 75.4434C35.2945 75.4442 35.3124 75.4461 35.3309 75.4461C35.3419 75.4461 35.3526 75.4449 35.3635 75.4445C35.4069 75.4447 35.45 75.4461 35.4936 75.4461C43.2767 75.4461 50.3394 72.3058 55.4843 67.2271C55.5855 67.1526 55.6723 67.0658 55.7468 66.9646C60.8255 61.8197 63.9658 54.7572 63.9658 46.9739C63.9658 39.1273 60.7754 32.0121 55.6235 26.857C55.5893 26.8115 55.5528 26.7673 55.5115 26.7258C55.4635 26.6778 55.4116 26.6358 55.3581 26.5974C50.2243 21.5914 43.2136 18.5015 35.4936 18.5015C35.4527 18.5015 35.4121 18.5034 35.3712 18.5035C35.3578 18.5031 35.3445 18.5015 35.331 18.5015C35.3041 18.5015 35.2777 18.5037 35.2513 18.5055C30.2725 18.5477 25.3896 19.8881 21.1151 22.3939C19.0204 23.6218 17.0948 25.113 15.3845 26.8197C15.3768 26.827 15.3685 26.8334 15.361 26.841C15.356 26.8459 15.352 26.8512 15.347 26.8563C13.6311 28.5748 12.1332 30.5108 10.9009 32.6172C10.5606 33.1988 10.7563 33.9463 11.338 34.2866C11.9197 34.6268 12.6672 34.4311 13.0075 33.8496C13.9383 32.2584 15.0295 30.7903 16.2495 29.4554L17.0865 30.2923C17.3248 30.5305 17.6371 30.6496 17.9493 30.6496C18.2614 30.6496 18.5739 30.5305 18.812 30.2922C19.2887 29.8157 19.2885 29.0429 18.812 28.5665L17.9781 27.7326C22.3792 23.7411 28.0777 21.3072 34.1106 20.9826V22.1623C34.1106 22.8363 34.6569 23.3825 35.3309 23.3825C36.0048 23.3825 36.5511 22.8363 36.5511 22.1623V20.9653C42.8166 21.2169 48.5188 23.6926 52.8877 27.624L52.0601 28.4515C51.5835 28.9281 51.5835 29.7007 52.0601 30.1773C52.2985 30.4155 52.6108 30.5346 52.9229 30.5346C53.2352 30.5346 53.5475 30.4155 53.7857 30.1773L54.6238 29.3392C58.6477 33.7011 61.2028 39.4364 61.4958 45.7537H60.305C59.6311 45.7537 59.0848 46.2999 59.0848 46.9739C59.0848 47.6478 59.6311 48.1941 60.305 48.1941H61.4958C61.2054 54.4535 58.6951 60.1426 54.7346 64.4894L53.9007 63.6554C53.4242 63.1791 52.6514 63.1791 52.175 63.6554C51.6984 64.1321 51.6984 64.9047 52.175 65.3813L53.0089 66.2152C48.6245 70.2098 42.8744 72.7285 36.5509 72.9825V71.7854C36.5509 71.1115 36.0046 70.5652 35.3307 70.5652C34.6568 70.5652 34.1105 71.1115 34.1105 71.7854V72.9688C27.8575 72.6399 22.1832 70.0936 17.8588 66.1042L18.6967 65.2663C19.1733 64.7897 19.1733 64.0171 18.6967 63.5404C18.2203 63.0641 17.4475 63.0641 16.971 63.5404L16.1435 64.368C12.2463 60.0369 9.77873 54.3957 9.49109 48.1941H10.6819C11.3558 48.1941 11.9021 47.6478 11.9021 46.9739C11.9021 46.2999 11.3558 45.7537 10.6819 45.7537H9.49318C9.5787 43.9072 9.85465 42.0795 10.3233 40.3055C10.4958 39.6539 10.1071 38.9862 9.45554 38.8141C8.8037 38.6418 8.13601 39.0305 7.96416 39.6821Z" fill="url(#paint0_linear_1303_94585)"/>
<path d="M35.3315 28.354C34.6575 28.354 34.1113 28.9003 34.1113 29.5742V42.2938C32.0915 42.8917 30.6133 44.763 30.6133 46.9741C30.6133 49.6655 32.8029 51.855 35.4942 51.855C38.1855 51.855 40.3751 49.6654 40.3751 46.9741C40.3751 44.6459 38.7361 42.6946 36.5517 42.2099V29.5744C36.5519 28.9001 36.0054 28.354 35.3315 28.354ZM37.9348 46.9741C37.9348 48.3199 36.84 49.4146 35.4944 49.4146C34.1487 49.4146 33.0539 48.3199 33.0539 46.9741C33.0539 45.6283 34.1487 44.5336 35.4944 44.5336C36.84 44.5336 37.9348 45.6283 37.9348 46.9741Z" fill="url(#paint1_linear_1303_94585)"/>
<path d="M62.5037 24.9118L63.7207 23.7102C64.4362 24.42 65.3723 24.7754 66.3089 24.7754C67.2499 24.7754 68.1912 24.4171 68.9076 23.7007C69.6017 23.0068 69.9838 22.0838 69.9838 21.1022C69.9838 20.1206 69.6015 19.1978 68.9074 18.5037L63.7505 13.3468C62.3176 11.914 59.9862 11.9142 58.5533 13.3469C57.8592 14.0409 57.4771 14.9639 57.4771 15.9455C57.4771 16.9223 57.8561 17.8404 58.5439 18.5334L57.3262 19.7356C52.0622 15.4576 45.7368 12.8362 38.9926 12.1384V9.76184C41.0112 9.76184 42.6533 8.1196 42.6533 6.10115V3.66069C42.6532 1.64224 41.0111 0 38.9925 0H36.5996C35.9256 0 35.3793 0.546293 35.3793 1.22023C35.3793 1.89417 35.9256 2.44046 36.5996 2.44046H38.9925C39.6653 2.44046 40.2127 2.98787 40.2127 3.66069V6.10115C40.2127 6.77397 39.6653 7.32138 38.9925 7.32138H31.6711C30.9983 7.32138 30.4508 6.77397 30.4508 6.10115V3.66069C30.4508 2.98787 30.9983 2.44046 31.6711 2.44046C32.345 2.44046 32.8913 1.89417 32.8913 1.22023C32.8913 0.546293 32.3452 0 31.6711 0C29.6525 0 28.0104 1.64224 28.0104 3.66069V6.10115C28.0104 8.1196 29.6525 9.76184 31.6711 9.76184V12.1382C23.711 12.9619 16.3328 16.4636 10.5964 22.2077C3.98999 28.8232 0.351562 37.6186 0.351562 46.9741C0.351562 56.3297 3.98999 65.1251 10.5964 71.7407C17.2037 78.3564 25.9881 82 35.3318 82C47.0227 82 57.893 76.1868 64.4101 66.45C64.7848 65.8899 64.6348 65.132 64.0747 64.7573C63.5148 64.3825 62.7569 64.5324 62.3818 65.0925C56.319 74.1512 46.2065 79.5595 35.3318 79.5595C17.3893 79.5595 2.79202 64.9418 2.79202 46.9741C2.79202 29.6598 16.3476 15.4584 33.3889 14.4485C33.5648 14.4381 35.0923 14.3888 35.3318 14.3888C35.5712 14.3888 37.0973 14.4379 37.2722 14.4483C54.3146 15.4572 67.8714 29.659 67.8714 46.9741C67.8714 50.9952 67.1491 54.92 65.7245 58.6395C65.4834 59.2689 65.7981 59.9744 66.4275 60.2154C67.0573 60.4564 67.7624 60.1417 68.0035 59.5123C69.5352 55.513 70.3118 51.2945 70.3118 46.974C70.312 38.8419 67.5616 31.1337 62.5037 24.9118ZM36.5522 11.9699C36.5003 11.9682 35.3399 11.9481 35.3319 11.9481C35.3238 11.9481 34.1634 11.9682 34.1117 11.9699V9.76184H36.5522V11.9699ZM60.279 15.0723C60.7603 14.5909 61.5436 14.5909 62.0249 15.0723L67.1817 20.2292C67.4149 20.4622 67.5432 20.7723 67.5432 21.1019C67.5432 21.4318 67.4147 21.7417 67.1817 21.9747C66.7006 22.456 65.9171 22.4563 65.4359 21.9747L60.279 16.8178C60.0458 16.5848 59.9175 16.2748 59.9175 15.9452C59.9174 15.6154 60.046 15.3055 60.279 15.0723ZM60.8967 23.0676C60.8777 23.0473 60.8575 23.0277 60.8384 23.0074C60.5855 22.7379 60.3294 22.4706 60.0671 22.2077C59.7936 21.9339 59.5149 21.6669 59.234 21.4033C59.2125 21.3833 59.1922 21.3621 59.1707 21.3423L60.2687 20.2596L61.1317 21.1224L61.9944 21.9853L60.8967 23.0676Z" fill="url(#paint2_linear_1303_94585)"/>
<path d="M9.27237 38.7653C9.26852 38.7643 9.26866 38.7645 9.27237 38.7653V38.7653Z" fill="url(#paint3_linear_1303_94585)"/>
<path d="M9.27539 38.7661C9.29237 38.7706 9.34586 38.7847 9.45653 38.814C9.941 38.942 9.34538 38.7845 9.27539 38.7661Z" fill="url(#paint4_linear_1303_94585)"/>
<path d="M9.27148 38.7651C9.27234 38.7654 9.27319 38.7656 9.27434 38.7659C9.27334 38.7657 9.2722 38.7654 9.27148 38.7651Z" fill="url(#paint5_linear_1303_94585)"/>
<defs>
<linearGradient id="paint0_linear_1303_94585" x1="7.02148" y1="20.1846" x2="74.8961" y2="52.4599" gradientUnits="userSpaceOnUse">
<stop offset="0.0532222" stop-color="#2496C7"/>
<stop offset="1" stop-color="#046E9B"/>
</linearGradient>
<linearGradient id="paint1_linear_1303_94585" x1="30.6133" y1="29.0486" x2="44.3442" y2="31.7607" gradientUnits="userSpaceOnUse">
<stop offset="0.0532222" stop-color="#2496C7"/>
<stop offset="1" stop-color="#046E9B"/>
</linearGradient>
<linearGradient id="paint2_linear_1303_94585" x1="0.351562" y1="2.42365" x2="88.1457" y2="38.0416" gradientUnits="userSpaceOnUse">
<stop offset="0.0532222" stop-color="#2496C7"/>
<stop offset="1" stop-color="#046E9B"/>
</linearGradient>
<linearGradient id="paint3_linear_1303_94585" x1="9.26953" y1="38.7647" x2="9.2704" y2="38.7664" gradientUnits="userSpaceOnUse">
<stop offset="0.0532222" stop-color="#2496C7"/>
<stop offset="1" stop-color="#046E9B"/>
</linearGradient>
<linearGradient id="paint4_linear_1303_94585" x1="9.27539" y1="38.769" x2="9.40271" y2="38.9982" gradientUnits="userSpaceOnUse">
<stop offset="0.0532222" stop-color="#2496C7"/>
<stop offset="1" stop-color="#046E9B"/>
</linearGradient>
<linearGradient id="paint5_linear_1303_94585" x1="9.27148" y1="38.7652" x2="9.27239" y2="38.7669" gradientUnits="userSpaceOnUse">
<stop offset="0.0532222" stop-color="#2496C7"/>
<stop offset="1" stop-color="#046E9B"/>
</linearGradient>
</defs>
</svg>
