<svg width="72" height="72" viewBox="0 0 72 72" fill="none" xmlns="http://www.w3.org/2000/svg">
<g clip-path="url(#clip0_1303_94636)">
<path d="M59.552 4.88821H58.1028V3.43905C58.1029 1.54291 56.56 0 54.6636 0H17.6517C17.3775 0 17.1141 0.106825 16.9173 0.297844L9.32968 7.6655C9.12516 7.86397 9.00991 8.13694 9.00991 8.42185V48.7815C9.00991 49.3639 9.4819 49.8357 10.0641 49.8357C10.6463 49.8357 11.1183 49.3639 11.1183 48.7815V9.47885L16.7068 9.49375H16.7122C17.2381 9.49375 17.7327 9.28966 18.1057 8.91872C18.48 8.54652 18.6869 8.05063 18.6883 7.52283L18.703 2.10838H43.9939V13.0459C43.9939 14.8045 45.4247 16.2351 47.1832 16.2351C48.9417 16.2351 50.3724 14.8043 50.3724 13.0459V7.61378C50.3724 7.03144 49.9004 6.55959 49.3182 6.55959C48.736 6.55959 48.264 7.03144 48.264 7.61378V13.0459C48.264 13.6419 47.779 14.1267 47.1832 14.1267C46.5873 14.1267 46.1023 13.6419 46.1023 13.0459V2.10838H54.6637C55.3976 2.10838 55.9946 2.70533 55.9946 3.43919V19.0529C55.9946 19.6352 56.4666 20.107 57.0487 20.107C57.6309 20.107 58.1029 19.6352 58.1029 19.0529V6.99658H59.5521C60.286 6.99658 60.883 7.59368 60.883 8.32753V68.5608C60.883 69.2947 60.286 69.8916 59.5521 69.8916H17.3374C16.6036 69.8916 16.0066 69.2947 16.0066 68.5608V67.1116H54.6637C56.5602 67.1116 58.1029 65.5687 58.1029 63.6723V23.9271C58.1029 23.3448 57.6309 22.873 57.0487 22.873C56.4666 22.873 55.9946 23.3448 55.9946 23.9271V63.6726C55.9946 64.4065 55.3975 65.0036 54.6637 65.0036H12.4491C11.7152 65.0036 11.1181 64.4065 11.1181 63.6726V53.6892C11.1181 53.1068 10.6461 52.635 10.064 52.635C9.48176 52.635 9.00977 53.1068 9.00977 53.6892V63.6725C9.00977 65.5689 10.5527 67.1118 12.4491 67.1118H13.8983V68.561C13.8983 70.4572 15.4412 72.0001 17.3374 72.0001H59.552C61.4484 72.0001 62.9913 70.4572 62.9913 68.561V8.32753C62.9913 6.43112 61.4484 4.88821 59.552 4.88821ZM16.5801 7.38495L12.6559 7.37455L15.2642 4.84168L16.5905 3.55388L16.5801 7.38495Z" fill="white"/>
<path d="M34.9704 14.791H32.141C30.9382 14.791 29.9597 15.7696 29.9597 16.9723V20.1348C29.9597 20.175 29.9269 20.2077 29.8867 20.2077H26.7243C25.5215 20.2077 24.543 21.1863 24.543 22.389V25.2185C24.543 26.4214 25.5215 27.4 26.7243 27.4H29.8867C29.9269 27.4 29.9597 27.4326 29.9597 27.4729V30.6353C29.9597 31.8381 30.9381 32.8167 32.141 32.8167H34.9704C36.1732 32.8167 37.1518 31.8381 37.1518 30.6353V27.4729C37.1518 27.4327 37.1845 27.4 37.2247 27.4H40.3872C41.5899 27.4 42.5685 26.4214 42.5685 25.2185V22.389C42.5685 21.1863 41.5899 20.2077 40.3872 20.2077H37.2247C37.1845 20.2077 37.1518 20.1751 37.1518 20.1348V16.9723C37.1518 15.7696 36.1732 14.791 34.9704 14.791ZM37.2247 22.3161H40.3872C40.4274 22.3161 40.4601 22.3487 40.4601 22.389V25.2185C40.4601 25.2587 40.4274 25.2916 40.3872 25.2916H37.2247C36.022 25.2916 35.0434 26.2702 35.0434 27.4729V30.6353C35.0434 30.6755 35.0106 30.7083 34.9704 30.7083H32.141C32.1008 30.7083 32.0681 30.6757 32.0681 30.6353V27.4729C32.0681 26.2702 31.0895 25.2916 29.8867 25.2916H26.7243C26.6841 25.2916 26.6513 25.2588 26.6513 25.2185V22.389C26.6513 22.3488 26.6841 22.3161 26.7243 22.3161H29.8867C31.0895 22.3161 32.0681 21.3375 32.0681 20.1348V16.9723C32.0681 16.9321 32.1007 16.8994 32.141 16.8994H34.9704C35.0106 16.8994 35.0434 16.932 35.0434 16.9723V20.1348C35.0434 21.3375 36.022 22.3161 37.2247 22.3161Z" fill="white"/>
<path d="M29.7187 37.4819H17.5151C16.9329 37.4819 16.4609 37.9538 16.4609 38.5361C16.4609 39.1185 16.9329 39.5903 17.5151 39.5903H29.7187C30.3009 39.5903 30.7729 39.1185 30.7729 38.5361C30.7729 37.9538 30.3009 37.4819 29.7187 37.4819Z" fill="white"/>
<path d="M35.9995 39.5903H49.5964C50.1786 39.5903 50.6506 39.1185 50.6506 38.5361C50.6506 37.9538 50.1786 37.4819 49.5964 37.4819H35.9995C35.4173 37.4819 34.9453 37.9538 34.9453 38.5361C34.9453 39.1185 35.4173 39.5903 35.9995 39.5903Z" fill="white"/>
<path d="M29.7187 43.1729H17.5151C16.9329 43.1729 16.4609 43.6447 16.4609 44.227C16.4609 44.8094 16.9329 45.2812 17.5151 45.2812H29.7187C30.3009 45.2812 30.7729 44.8094 30.7729 44.227C30.7729 43.6447 30.3009 43.1729 29.7187 43.1729Z" fill="white"/>
<path d="M49.5964 43.1729H35.9995C35.4173 43.1729 34.9453 43.6447 34.9453 44.227C34.9453 44.8094 35.4173 45.2812 35.9995 45.2812H49.5964C50.1786 45.2812 50.6506 44.8094 50.6506 44.227C50.6506 43.6447 50.1788 43.1729 49.5964 43.1729Z" fill="white"/>
<path d="M29.7187 48.8643H17.5151C16.9329 48.8643 16.4609 49.3361 16.4609 49.9184C16.4609 50.5008 16.9329 50.9726 17.5151 50.9726H29.7187C30.3009 50.9726 30.7729 50.5008 30.7729 49.9184C30.7729 49.3361 30.3009 48.8643 29.7187 48.8643Z" fill="white"/>
<path d="M49.5964 48.8643H35.9995C35.4173 48.8643 34.9453 49.3361 34.9453 49.9184C34.9453 50.5008 35.4173 50.9726 35.9995 50.9726H49.5964C50.1786 50.9726 50.6506 50.5008 50.6506 49.9184C50.6506 49.3361 50.1788 48.8643 49.5964 48.8643Z" fill="white"/>
<path d="M29.7187 54.5552H17.5151C16.9329 54.5552 16.4609 55.027 16.4609 55.6094C16.4609 56.1917 16.9329 56.6636 17.5151 56.6636H29.7187C30.3009 56.6636 30.7729 56.1917 30.7729 55.6094C30.7729 55.027 30.3009 54.5552 29.7187 54.5552Z" fill="white"/>
<path d="M49.5964 54.5552H35.9995C35.4173 54.5552 34.9453 55.027 34.9453 55.6094C34.9453 56.1917 35.4173 56.6636 35.9995 56.6636H49.5964C50.1786 56.6636 50.6506 56.1917 50.6506 55.6094C50.6506 55.027 50.1788 54.5552 49.5964 54.5552Z" fill="white"/>
</g>
<defs>
<clipPath id="clip0_1303_94636">
<rect width="72" height="72" fill="white"/>
</clipPath>
</defs>
</svg>
