<svg width="72" height="72" viewBox="0 0 72 72" fill="none" xmlns="http://www.w3.org/2000/svg">
<path d="M63.957 4.65947H62.682V3.38442C62.682 1.51819 61.1638 0 59.2976 0C57.4313 0 55.9131 1.51819 55.9131 3.38442V4.65947H51.0335V3.38442C51.0336 1.51819 49.5153 0 47.6492 0C45.7831 0 44.2647 1.51819 44.2647 3.38442V4.65947H39.3851V3.38442C39.3851 1.51819 37.8669 0 36.0006 0C34.1344 0 32.6162 1.51819 32.6162 3.38442V4.65947H27.7365V3.38442C27.7367 1.51819 26.2183 0 24.3522 0C22.486 0 20.9678 1.51819 20.9678 3.38442V4.65947H19.6926C16.5419 4.65947 13.9788 7.22278 13.9788 10.3733V36.1832L11.3989 33.6033C10.0792 32.2837 7.93217 32.2838 6.61255 33.6033L3.31784 36.898C1.99822 38.2175 1.99822 40.3647 3.31784 41.6842L13.9786 52.345V66.286C13.9786 69.4367 16.5419 72 19.6925 72H55.571C56.1535 72 56.6257 71.5278 56.6257 70.9453C56.6257 70.3628 56.1535 69.8906 55.571 69.8906H19.6926C17.705 69.8906 16.0881 68.2736 16.0881 66.286V54.4544L24.6921 63.0584C24.7172 63.0834 24.7433 63.107 24.7705 63.1291C24.7889 63.1441 24.808 63.1575 24.8271 63.1711C24.8361 63.1775 24.8446 63.1846 24.8537 63.1907C24.8779 63.2069 24.9028 63.2212 24.928 63.2351C24.9328 63.2378 24.9373 63.2409 24.942 63.2434C24.9686 63.2576 24.9958 63.27 25.023 63.2817C25.0271 63.2834 25.0309 63.2856 25.0351 63.2873C25.0617 63.2983 25.0887 63.3075 25.1158 63.3163C25.1215 63.3181 25.1268 63.3203 25.1324 63.322C25.158 63.3298 25.1839 63.3358 25.2098 63.3414C25.2175 63.3431 25.225 63.3455 25.2327 63.3471C25.2579 63.352 25.2832 63.3552 25.3086 63.3583C25.3175 63.3594 25.3261 63.3613 25.3349 63.3621C25.3691 63.3655 25.4036 63.3672 25.4379 63.3672H31.5904L32.9288 64.7056C33.1347 64.9115 33.4047 65.0146 33.6746 65.0146C33.9444 65.0146 34.2144 64.9115 34.4203 64.7056C34.8322 64.2937 34.8322 63.6259 34.4203 63.214L33.0818 61.8757V55.7235C33.0818 55.6889 33.0801 55.6545 33.0768 55.62C33.0761 55.6124 33.0744 55.6051 33.0735 55.5975C33.0703 55.5708 33.0668 55.5442 33.0616 55.5178C33.0602 55.511 33.0582 55.5044 33.0567 55.4977C33.0508 55.4708 33.0444 55.4439 33.0365 55.4175C33.0351 55.4127 33.0332 55.4082 33.0316 55.4034C33.0228 55.3755 33.0131 55.3476 33.0018 55.3202C33.0005 55.3172 32.999 55.3144 32.9977 55.3115C32.9856 55.2829 32.9726 55.2547 32.9579 55.2271C32.956 55.2234 32.9537 55.2202 32.9518 55.2165C32.9373 55.1901 32.9221 55.1641 32.9052 55.1388C32.9 55.1309 32.8938 55.1236 32.8883 55.1159C32.874 55.0955 32.8596 55.0751 32.8438 55.0555C32.8215 55.0284 32.798 55.0022 32.773 54.9772L24.1689 46.3731H60.4624C61.0448 46.3731 61.517 45.9008 61.517 45.3184C61.517 44.7359 61.0448 44.2637 60.4624 44.2637H23.1873C22.8775 44.2637 22.5996 44.3981 22.4067 44.6109L16.088 38.2922V18.4172H67.5615V25.6103C67.5615 26.1928 68.0337 26.665 68.6162 26.665C69.1987 26.665 69.6709 26.1928 69.6709 25.6103V10.3733C69.671 7.22264 67.1077 4.65947 63.957 4.65947ZM30.9726 61.2579H27.9842L30.9726 58.2695V61.2579ZM8.84989 44.2332L10.6531 42.4301L27.2411 59.0181L25.438 60.8212L8.84989 44.2332ZM28.7326 57.5265L12.1446 40.9385L13.9478 39.1354L30.5358 55.7234L28.7326 57.5265ZM4.80945 38.3896L8.10416 35.0949C8.60127 34.5978 9.41028 34.5977 9.90739 35.0949L12.4564 37.6439L7.35842 42.7416L4.80959 40.1927C4.31234 39.6956 4.31234 38.8868 4.80945 38.3896ZM59.2976 2.10938C60.0007 2.10938 60.5726 2.6813 60.5726 3.38442V8.04375C60.5726 8.74687 60.0007 9.3188 59.2976 9.3188C58.5944 9.3188 58.0225 8.74687 58.0225 8.04375V5.71556C58.0225 5.71514 58.0225 5.71472 58.0225 5.71416C58.0225 5.71359 58.0225 5.71331 58.0225 5.71275V3.38442C58.0227 2.6813 58.5946 2.10938 59.2976 2.10938ZM47.6492 2.10938C48.3523 2.10938 48.9242 2.6813 48.9242 3.38442V8.04375C48.9242 8.74687 48.3523 9.3188 47.6492 9.3188C46.946 9.3188 46.3741 8.74687 46.3741 8.04375V5.71556C46.3741 5.71514 46.3741 5.71472 46.3741 5.71416C46.3741 5.71359 46.3741 5.71331 46.3741 5.71275V3.38442C46.3741 2.6813 46.946 2.10938 47.6492 2.10938ZM34.7257 3.38442C34.7257 2.6813 35.2977 2.10938 36.0008 2.10938C36.7039 2.10938 37.2758 2.6813 37.2758 3.38442V5.71275V5.71416C37.2758 5.71416 37.2758 5.715 37.2758 5.71556V8.04375C37.2758 8.74687 36.7039 9.3188 36.0008 9.3188C35.2978 9.3188 34.7257 8.74687 34.7257 8.04375V3.38442ZM24.3522 2.10938C25.0552 2.10938 25.6273 2.6813 25.6273 3.38442V8.04375C25.6273 8.74687 25.0554 9.3188 24.3522 9.3188C23.6491 9.3188 23.0772 8.74687 23.0772 8.04375V3.38442C23.0772 2.6813 23.6491 2.10938 24.3522 2.10938ZM16.0881 16.3079V10.3733C16.0881 8.38575 17.7052 6.76884 19.6926 6.76884H20.9678V8.04375C20.9678 9.90998 22.486 11.4282 24.3522 11.4282C26.2183 11.4282 27.7367 9.90998 27.7367 8.04375V6.76884H32.6164V8.04375C32.6164 9.90998 34.1345 11.4282 36.0008 11.4282C37.867 11.4282 39.3852 9.90998 39.3852 8.04375V6.76884H44.2649V8.04375C44.2649 9.90998 45.7831 11.4282 47.6493 11.4282C49.5155 11.4282 51.0337 9.90998 51.0337 8.04375V6.76884H55.9134V8.04375C55.9134 9.90998 57.4316 11.4282 59.2978 11.4282C61.1641 11.4282 62.6823 9.90998 62.6823 8.04375V6.76884H63.9573C65.9449 6.76884 67.562 8.38589 67.562 10.3733V16.3079H16.0881Z" fill="url(#paint0_linear_1303_94673)"/>
<path d="M68.6157 28.7744C68.0332 28.7744 67.561 29.2466 67.561 29.8291V66.2859C67.561 68.2734 65.9439 69.8905 63.9563 69.8905H59.7891C59.2066 69.8905 58.7344 70.3627 58.7344 70.9452C58.7344 71.5276 59.2066 71.9999 59.7891 71.9999H63.9563C67.107 71.9999 69.6704 69.4366 69.6704 66.2859V29.8291C69.6704 29.2466 69.1981 28.7744 68.6157 28.7744Z" fill="url(#paint1_linear_1303_94673)"/>
<path d="M23.1875 25.4062H60.4625C61.045 25.4062 61.5172 24.934 61.5172 24.3516C61.5172 23.7691 61.045 23.2969 60.4625 23.2969H23.1875C22.605 23.2969 22.1328 23.7691 22.1328 24.3516C22.1328 24.934 22.605 25.4062 23.1875 25.4062Z" fill="url(#paint2_linear_1303_94673)"/>
<path d="M23.1875 32.3955H60.4625C61.045 32.3955 61.5172 31.9233 61.5172 31.3408C61.5172 30.7584 61.045 30.2861 60.4625 30.2861H23.1875C22.605 30.2861 22.1328 30.7584 22.1328 31.3408C22.1328 31.9233 22.605 32.3955 23.1875 32.3955Z" fill="url(#paint3_linear_1303_94673)"/>
<path d="M23.1875 39.3843H60.4625C61.045 39.3843 61.5172 38.9121 61.5172 38.3296C61.5172 37.7471 61.045 37.2749 60.4625 37.2749H23.1875C22.605 37.2749 22.1328 37.7471 22.1328 38.3296C22.1328 38.9121 22.605 39.3843 23.1875 39.3843Z" fill="url(#paint4_linear_1303_94673)"/>
<path d="M61.5164 52.3076C61.5164 51.7251 61.0442 51.2529 60.4617 51.2529H36C35.4175 51.2529 34.9453 51.7251 34.9453 52.3076C34.9453 52.8901 35.4175 53.3623 36 53.3623H60.4617C61.0442 53.3623 61.5164 52.8901 61.5164 52.3076Z" fill="url(#paint5_linear_1303_94673)"/>
<defs>
<linearGradient id="paint0_linear_1303_94673" x1="2.32812" y1="2.12808" x2="84.4938" y2="38.672" gradientUnits="userSpaceOnUse">
<stop offset="0.0532222" stopColor="#2496C7"/>
<stop offset="1" stopColor="#046E9B"/>
</linearGradient>
<linearGradient id="paint1_linear_1303_94673" x1="58.7344" y1="30.052" x2="74.4889" y2="31.9474" gradientUnits="userSpaceOnUse">
<stop offset="0.0532222" stopColor="#2496C7"/>
<stop offset="1" stopColor="#046E9B"/>
</linearGradient>
<linearGradient id="paint2_linear_1303_94673" x1="22.1328" y1="23.3592" x2="22.8539" y2="29.761" gradientUnits="userSpaceOnUse">
<stop offset="0.0532222" stopColor="#2496C7"/>
<stop offset="1" stopColor="#046E9B"/>
</linearGradient>
<linearGradient id="paint3_linear_1303_94673" x1="22.1328" y1="30.3485" x2="22.8539" y2="36.7503" gradientUnits="userSpaceOnUse">
<stop offset="0.0532222" stopColor="#2496C7"/>
<stop offset="1" stopColor="#046E9B"/>
</linearGradient>
<linearGradient id="paint4_linear_1303_94673" x1="22.1328" y1="37.3372" x2="22.8539" y2="43.739" gradientUnits="userSpaceOnUse">
<stop offset="0.0532222" stopColor="#2496C7"/>
<stop offset="1" stopColor="#046E9B"/>
</linearGradient>
<linearGradient id="paint5_linear_1303_94673" x1="34.9453" y1="51.3153" x2="35.9983" y2="57.6225" gradientUnits="userSpaceOnUse">
<stop offset="0.0532222" stopColor="#2496C7"/>
<stop offset="1" stopColor="#046E9B"/>
</linearGradient>
</defs>
</svg>
