<svg width="64" height="64" viewBox="0 0 64 64" fill="none" xmlns="http://www.w3.org/2000/svg">
<g clipPath="url(#clip0_1303_94525)">
<path d="M55.0759 3.95508H2.09488C0.93975 3.95508 0 4.89483 0 6.04995V19.025C0 20.1801 0.93975 21.1198 2.09488 21.1198H55.0759C56.231 21.1198 57.1707 20.1801 57.1707 19.025V6.04995C57.1709 4.89483 56.2311 3.95508 55.0759 3.95508ZM14.0562 19.0925H2.095C2.05775 19.0925 2.02737 19.0622 2.02737 19.0248V6.04983C2.02737 6.01258 2.05763 5.9822 2.095 5.9822H14.0562V19.0925ZM55.1435 19.025C55.1435 19.0622 55.1133 19.0926 55.0759 19.0926H16.0835V5.98233H55.0759C55.113 5.98233 55.1435 6.01258 55.1435 6.04995V19.025Z" fill="white"/>
<path d="M37.7756 9.36133H19.3945C18.8346 9.36133 18.3809 9.8152 18.3809 10.375C18.3809 10.9347 18.8347 11.3886 19.3945 11.3886H37.7756C38.3355 11.3886 38.7892 10.9347 38.7892 10.375C38.7892 9.8152 38.3355 9.36133 37.7756 9.36133Z" fill="white"/>
<path d="M50.7519 13.6865H29.1269C28.5669 13.6865 28.1133 14.1404 28.1133 14.7001C28.1133 15.2599 28.5672 15.7138 29.1269 15.7138H50.7519C51.3118 15.7138 51.7655 15.2599 51.7655 14.7001C51.7655 14.1404 51.3117 13.6865 50.7519 13.6865Z" fill="white"/>
<path d="M24.801 13.6865H19.3945C18.8346 13.6865 18.3809 14.1404 18.3809 14.7001C18.3809 15.2599 18.8347 15.7138 19.3945 15.7138H24.801C25.3609 15.7138 25.8146 15.2599 25.8146 14.7001C25.8146 14.1404 25.3607 13.6865 24.801 13.6865Z" fill="white"/>
<path d="M8.04097 7.19922C5.99147 7.19922 4.32422 8.86659 4.32422 10.916C4.32422 11.4758 4.77809 11.9296 5.33784 11.9296C5.89759 11.9296 6.35147 11.4757 6.35147 10.916C6.35147 9.98434 7.10934 9.22647 8.04097 9.22647C8.97259 9.22647 9.73047 9.98447 9.73047 10.916C9.73047 11.8475 8.97259 12.6055 8.04097 12.6055C7.48109 12.6055 7.02734 13.0593 7.02734 13.6191C7.02734 14.1788 7.48122 14.6327 8.04097 14.6327C10.0905 14.6327 11.7577 12.9655 11.7577 10.916C11.7577 8.86647 10.0905 7.19922 8.04097 7.19922Z" fill="white"/>
<path d="M8.0522 15.8486H8.04145C7.48158 15.8486 7.0332 16.3025 7.0332 16.8623C7.0332 17.422 7.49245 17.8759 8.05233 17.8759C8.6122 17.8759 9.06595 17.422 9.06595 16.8623C9.06595 16.3025 8.61195 15.8486 8.0522 15.8486Z" fill="white"/>
<path d="M37.7756 28.8237H19.3945C18.8346 28.8237 18.3809 29.2776 18.3809 29.8374C18.3809 30.3971 18.8347 30.851 19.3945 30.851H37.7756C38.3355 30.851 38.7892 30.3971 38.7892 29.8374C38.7892 29.2776 38.3355 28.8237 37.7756 28.8237Z" fill="white"/>
<path d="M47.5082 33.1489H29.1269C28.567 33.1489 28.1133 33.6028 28.1133 34.1625C28.1133 34.7223 28.5672 35.1762 29.1269 35.1762H47.5082C48.068 35.1762 48.5218 34.7223 48.5218 34.1625C48.5218 33.6028 48.0679 33.1489 47.5082 33.1489Z" fill="white"/>
<path d="M24.801 33.1489H19.3945C18.8346 33.1489 18.3809 33.6028 18.3809 34.1625C18.3809 34.7223 18.8347 35.1762 19.3945 35.1762H24.801C25.3609 35.1762 25.8146 34.7223 25.8146 34.1625C25.8146 33.6028 25.3607 33.1489 24.801 33.1489Z" fill="white"/>
<path d="M8.04097 26.6611C5.99147 26.6611 4.32422 28.3284 4.32422 30.3779C4.32422 30.9378 4.77809 31.3915 5.33784 31.3915C5.89759 31.3915 6.35147 30.9376 6.35147 30.3779C6.35147 29.4463 7.10934 28.6884 8.04097 28.6884C8.97259 28.6884 9.73047 29.4463 9.73047 30.3779C9.73047 31.3095 8.97259 32.0674 8.04097 32.0674C7.48109 32.0674 7.02734 32.5213 7.02734 33.081C7.02734 33.6408 7.48122 34.0946 8.04097 34.0946C10.0905 34.0946 11.7577 32.4274 11.7577 30.3779C11.7577 28.3284 10.0905 26.6611 8.04097 26.6611Z" fill="white"/>
<path d="M8.0522 35.3115H8.04145C7.48158 35.3115 7.0332 35.7654 7.0332 36.3251C7.0332 36.8849 7.49245 37.3388 8.05233 37.3388C8.6122 37.3388 9.06595 36.8849 9.06595 36.3251C9.06595 35.7654 8.61195 35.3115 8.0522 35.3115Z" fill="white"/>
<path d="M37.7756 48.2861H19.3945C18.8346 48.2861 18.3809 48.74 18.3809 49.2998C18.3809 49.8595 18.8347 50.3134 19.3945 50.3134H37.7756C38.3355 50.3134 38.7892 49.8595 38.7892 49.2998C38.7892 48.74 38.3355 48.2861 37.7756 48.2861Z" fill="white"/>
<path d="M48.5894 52.6113H29.1269C28.567 52.6113 28.1133 53.0652 28.1133 53.625C28.1133 54.1847 28.5672 54.6386 29.1269 54.6386H48.5894C49.1493 54.6386 49.603 54.1847 49.603 53.625C49.603 53.0652 49.1492 52.6113 48.5894 52.6113Z" fill="white"/>
<path d="M24.801 52.6113H19.3945C18.8346 52.6113 18.3809 53.0652 18.3809 53.625C18.3809 54.1847 18.8347 54.6386 19.3945 54.6386H24.801C25.3609 54.6386 25.8146 54.1847 25.8146 53.625C25.8146 53.0652 25.3607 52.6113 24.801 52.6113Z" fill="white"/>
<path d="M8.04097 46.1235C5.99147 46.1235 4.32422 47.7908 4.32422 49.8403C4.32422 50.4002 4.77809 50.8539 5.33784 50.8539C5.89759 50.8539 6.35147 50.4 6.35147 49.8403C6.35147 48.9087 7.10934 48.1508 8.04097 48.1508C8.97259 48.1508 9.73047 48.9087 9.73047 49.8403C9.73047 50.7719 8.97259 51.5298 8.04097 51.5298C7.48109 51.5298 7.02734 51.9837 7.02734 52.5434C7.02734 53.1032 7.48122 53.557 8.04097 53.557C10.0905 53.557 11.7577 51.8898 11.7577 49.8403C11.7577 47.7909 10.0905 46.1235 8.04097 46.1235Z" fill="white"/>
<path d="M8.0522 54.7739H8.04145C7.48158 54.7739 7.0332 55.2278 7.0332 55.7876C7.0332 56.3473 7.49245 56.8012 8.05233 56.8012C8.6122 56.8012 9.06595 56.3473 9.06595 55.7876C9.06595 55.2278 8.61195 54.7739 8.0522 54.7739Z" fill="white"/>
<path d="M63.9569 45.6092C64.0646 45.2517 63.9671 44.8639 63.7031 44.5999L57.1707 38.0675V25.5124C57.1707 24.3572 56.231 23.4175 55.0759 23.4175H2.09488C0.93975 23.4175 0 24.3572 0 25.5124V38.4874C0 39.6425 0.93975 40.5822 2.09488 40.5822H50.8185V42.8799H2.09488C0.93975 42.8799 0 43.8196 0 44.9749V57.9499C0 59.105 0.93975 60.0447 2.09488 60.0447H55.0759C56.231 60.0447 57.1707 59.105 57.1707 57.9499V54.8435L58.1162 57.1262C58.2191 57.3746 58.4164 57.572 58.6649 57.6749C58.7891 57.7262 58.921 57.752 59.0527 57.752C59.1845 57.752 59.3164 57.7264 59.4406 57.6749L63.0778 56.1682C63.595 55.954 63.8406 55.361 63.6264 54.8439L60.331 46.8884L63.1872 46.3102C63.5535 46.2361 63.8491 45.9667 63.9569 45.6092ZM14.0562 38.555H2.095C2.05775 38.555 2.02737 38.5247 2.02737 38.4874V25.5124C2.02737 25.4751 2.05763 25.4447 2.095 25.4447H14.0562V38.555ZM16.0835 38.555V25.4449H55.0759C55.1131 25.4449 55.1435 25.4751 55.1435 25.5125V36.0404L52.5489 33.4457C52.259 33.1557 51.8229 33.0691 51.4442 33.226C51.0654 33.3829 50.8185 33.7526 50.8185 34.1625V38.5551L16.0835 38.555ZM14.0562 58.0174H2.095C2.05775 58.0174 2.02737 57.9871 2.02737 57.9497V44.9749C2.02737 44.9376 2.05763 44.9072 2.095 44.9072H14.0562V58.0174ZM55.1435 57.9497C55.1435 57.987 55.1133 58.0174 55.0759 58.0174H16.0835V44.9072H50.8185V49.9095C50.8185 50.2819 51.0228 50.6244 51.3504 50.8014C51.678 50.9784 52.0764 50.9615 52.3879 50.7574L54.8185 49.1642L55.1435 49.949V57.9497ZM58.7225 45.1454C58.4256 45.2055 58.1711 45.3952 58.0288 45.6626C57.8864 45.9301 57.8711 46.247 57.987 46.527L61.3655 54.6832L59.6015 55.414L56.223 47.2577C56.1075 46.9787 55.8736 46.7659 55.5851 46.677C55.4873 46.6469 55.3867 46.632 55.2868 46.632C55.0915 46.632 54.898 46.6884 54.731 46.7979L52.8461 48.0334V36.6097L60.9344 44.698L58.7225 45.1454Z" fill="white"/>
</g>
<defs>
<clipPath id="clip0_1303_94525">
<rect width="64" height="64" fill="white"/>
</clipPath>
</defs>
</svg>
