<svg width="41" height="41" viewBox="0 0 41 41" fill="none" xmlns="http://www.w3.org/2000/svg">
<g clip-path="url(#clip0_1422_18829)">
<path d="M34.6108 6.35297C32.7501 4.50492 30.5799 3.06227 28.1605 2.06508C25.7414 1.06805 23.1849 0.5625 20.5622 0.5625C18.9734 0.5625 17.3934 0.748672 15.8663 1.1157C15.5516 1.19141 15.3577 1.50789 15.4334 1.82266C15.5091 2.1375 15.8256 2.33125 16.1403 2.25562C17.5778 1.91008 19.0655 1.73484 20.5622 1.73484C25.5505 1.73484 30.2463 3.67031 33.7846 7.18476C37.3587 10.7347 39.327 15.4634 39.3271 20.4995C39.3271 22.9777 38.8468 25.3938 37.8994 27.6809C36.952 29.968 35.5832 32.0162 33.8309 33.7685C30.285 37.3144 25.5755 39.2645 20.5622 39.2645C20.5407 39.2645 20.5184 39.2645 20.4969 39.2644C15.5098 39.2476 10.8207 37.2957 7.29344 33.7684C3.74922 30.2242 1.79734 25.512 1.79734 20.4998C1.79734 20.3848 1.79844 20.2682 1.80063 20.1516H4.86547C4.86273 20.2694 4.86133 20.3859 4.86133 20.4998C4.86133 29.1573 11.9048 36.2007 20.5623 36.2007C23.0597 36.2007 25.5468 35.5969 27.7547 34.4544C29.89 33.3496 31.775 31.7399 33.2059 29.7994C33.3981 29.5389 33.3427 29.1719 33.082 28.9798C32.8214 28.7876 32.4545 28.843 32.2623 29.1037C30.9375 30.9002 29.1925 32.3905 27.2159 33.4132C25.1447 34.4849 22.9061 35.0284 20.5623 35.0284C12.5512 35.0284 6.03375 28.5109 6.03375 20.4998C6.03375 20.3355 6.03695 20.1651 6.0432 19.9931C6.05281 19.7287 5.95312 19.468 5.76969 19.2778C5.5868 19.0881 5.3307 18.9794 5.06719 18.9794H1.61023C1.0775 18.9794 0.648281 19.397 0.633125 19.9302C0.627734 20.1201 0.625 20.3117 0.625 20.4998C0.625 25.8252 2.69883 30.8319 6.46445 34.5975C8.31906 36.4521 10.4842 37.9023 12.8998 38.908C15.3157 39.9136 17.8704 40.428 20.4929 40.437C20.5161 40.437 20.5391 40.437 20.5623 40.437C25.8884 40.437 30.8927 38.3648 34.6599 34.5976C36.5216 32.7359 37.976 30.5598 38.9826 28.1296C39.9891 25.6996 40.4995 23.1324 40.4995 20.4996C40.4995 15.1487 38.4081 10.1247 34.6108 6.35297Z" fill="white"/>
<path d="M1.29985 16.8339H9.78743C10.1094 16.8321 10.4159 16.7278 10.6456 16.4999L14.3807 12.794C14.5946 12.5817 14.6591 12.2644 14.5449 11.9855C14.4306 11.7066 14.1621 11.5159 13.8608 11.5147H9.16267C11.9592 7.97718 16.2437 5.90835 20.7631 5.97225C24.5347 6.02327 28.0955 7.52429 30.7895 10.1987C33.4837 12.8732 35.0103 16.4228 35.0881 20.1937C35.1364 22.5326 34.6432 24.7766 33.622 26.8631C33.4798 27.1539 33.6002 27.505 33.8909 27.6473C33.9738 27.6879 34.0616 27.7071 34.1481 27.7071C34.3649 27.7071 34.5734 27.5863 34.6751 27.3784C35.7791 25.1224 36.3123 22.697 36.2602 20.1694C36.1761 16.093 34.5266 12.2566 31.6155 9.36663C28.7046 6.47694 24.8561 4.85514 20.7789 4.79991C15.6476 4.73163 10.7916 7.18897 7.7922 11.3766C7.61306 11.6268 7.58884 11.9526 7.72907 12.2269C7.86962 12.5017 8.14852 12.6822 8.45696 12.6834H12.8184L9.81977 15.6676C9.81243 15.6749 9.80259 15.6622 9.7922 15.6622H1.65642V7.5096C1.65642 7.49913 1.69407 7.48936 1.70142 7.48202L4.69251 4.50725V7.96889C4.69102 8.31928 4.89571 8.62335 5.22501 8.74343C5.55376 8.86319 5.91102 8.76733 6.13524 8.49874C6.50048 8.06093 6.8904 7.63428 7.29415 7.23053C9.12071 5.40397 11.2466 3.99999 13.6128 3.05772C13.9136 2.93796 14.0603 2.59702 13.9406 2.29624C13.8208 1.99546 13.4798 1.84874 13.1791 1.9685C10.664 2.97014 8.40509 4.46163 6.46524 6.40155C6.26032 6.60647 6.0661 6.81694 5.86915 7.03163V3.47397C5.8704 3.17257 5.69892 2.90257 5.42095 2.78608C5.14282 2.66968 4.82501 2.73147 4.61102 2.94382L0.875635 6.64975C0.646025 6.87757 0.501338 7.18124 0.50001 7.50475V15.9923C0.499072 16.2115 0.566182 16.418 0.720557 16.5737C0.874932 16.7293 1.08063 16.833 1.29985 16.8339Z" fill="white"/>
</g>
<defs>
<clipPath id="clip0_1422_18829">
<rect width="40" height="40" fill="white" transform="translate(0.5 0.5)"/>
</clipPath>
</defs>
</svg>
